<svg width="20" height="20" viewBox="0 0 20 20" fill="none" xmlns="http://www.w3.org/2000/svg">
<g id="fi_7154459">
<path id="Vector" d="M12.5 15.625H7.49996C7.11332 15.6246 6.74264 15.4708 6.46925 15.1974C6.19585 14.924 6.04207 14.5533 6.04163 14.1667V12.9167C6.09789 12.3527 6.28414 11.8094 6.58576 11.3295C6.88737 10.8496 7.29614 10.4461 7.77996 10.1508C7.80269 10.1329 7.82093 10.11 7.83323 10.0838C7.84553 10.0576 7.85154 10.0289 7.85079 10C7.85161 9.97119 7.84562 9.94259 7.83331 9.91653C7.821 9.89047 7.80273 9.86767 7.77996 9.85C7.29638 9.55423 6.88781 9.15056 6.58624 8.67059C6.28466 8.19061 6.09826 7.64735 6.04163 7.08333V5.83333C6.04207 5.44669 6.19585 5.07602 6.46925 4.80262C6.74264 4.52923 7.11332 4.37544 7.49996 4.375H12.5C12.8866 4.37544 13.2573 4.52923 13.5307 4.80262C13.8041 5.07602 13.9579 5.44669 13.9583 5.83333V7.08333C13.902 7.64735 13.7158 8.19064 13.4142 8.67054C13.1125 9.15044 12.7038 9.55387 12.22 9.84917C12.1972 9.86706 12.179 9.89001 12.1667 9.9162C12.1544 9.94238 12.1484 9.97108 12.1491 10C12.1483 10.0288 12.1543 10.0574 12.1666 10.0835C12.1789 10.1095 12.1972 10.1323 12.22 10.15C12.7035 10.4458 13.1121 10.8494 13.4137 11.3294C13.7153 11.8094 13.9017 12.3526 13.9583 12.9167V14.1667C13.9579 14.5533 13.8041 14.924 13.5307 15.1974C13.2573 15.4708 12.8866 15.6246 12.5 15.625ZM7.49996 5.625C7.44471 5.625 7.39172 5.64695 7.35265 5.68602C7.31358 5.72509 7.29163 5.77808 7.29163 5.83333V7.08333C7.35863 7.45069 7.50448 7.79916 7.71912 8.10473C7.93376 8.4103 8.2121 8.6657 8.53496 8.85333C8.7109 8.98825 8.85344 9.16185 8.95153 9.36069C9.04963 9.55953 9.10065 9.77828 9.10065 10C9.10065 10.2217 9.04963 10.4405 8.95153 10.6393C8.85344 10.8381 8.7109 11.0117 8.53496 11.1467C8.2121 11.3343 7.93376 11.5897 7.71912 11.8953C7.50448 12.2008 7.35863 12.5493 7.29163 12.9167V14.1667C7.29163 14.2219 7.31358 14.2749 7.35265 14.314C7.39172 14.3531 7.44471 14.375 7.49996 14.375H12.5C12.5552 14.375 12.6082 14.3531 12.6473 14.314C12.6863 14.2749 12.7083 14.2219 12.7083 14.1667V12.9167C12.6413 12.5493 12.4954 12.2008 12.2808 11.8953C12.0662 11.5897 11.7878 11.3343 11.465 11.1467C11.289 11.0117 11.1465 10.8381 11.0484 10.6393C10.9503 10.4405 10.8993 10.2217 10.8993 10C10.8993 9.77828 10.9503 9.55953 11.0484 9.36069C11.1465 9.16185 11.289 8.98825 11.465 8.85333C11.7878 8.6657 12.0662 8.4103 12.2808 8.10473C12.4954 7.79916 12.6413 7.45069 12.7083 7.08333V5.83333C12.7083 5.77808 12.6863 5.72509 12.6473 5.68602C12.6082 5.64695 12.5552 5.625 12.5 5.625H7.49996Z" fill="#292D32"/>
<path id="Vector_2" d="M10.0175 18.96C9.61442 18.9591 9.21186 18.9312 8.8125 18.8767C8.73123 18.8658 8.65291 18.839 8.582 18.7979C8.51109 18.7567 8.44898 18.702 8.39922 18.6368C8.34946 18.5717 8.31303 18.4973 8.292 18.4181C8.27097 18.3389 8.26576 18.2563 8.27666 18.175C8.28647 18.0932 8.31256 18.0143 8.35337 17.9428C8.39418 17.8713 8.4489 17.8087 8.5143 17.7587C8.5797 17.7086 8.65445 17.6722 8.73414 17.6516C8.81384 17.6309 8.89687 17.6264 8.97833 17.6383C10.4891 17.84 12.0257 17.5893 13.394 16.9178C14.7623 16.2464 15.9009 15.1844 16.6657 13.866C17.4306 12.5476 17.7875 11.0321 17.6912 9.51101C17.595 7.98988 17.0499 6.53143 16.125 5.32C15.9027 5.02984 15.6605 4.75556 15.4 4.49916C15.2819 4.3828 15.2148 4.22427 15.2135 4.05846C15.2123 3.89265 15.277 3.73313 15.3933 3.615C15.5097 3.49686 15.6682 3.4298 15.834 3.42855C15.9998 3.4273 16.1594 3.49197 16.2775 3.60833C16.5794 3.90586 16.86 4.22413 17.1175 4.56083C18.1307 5.88712 18.7533 7.47003 18.9151 9.13116C19.0769 10.7923 18.7716 12.4656 18.0335 13.9625C17.2954 15.4594 16.1539 16.7204 14.7376 17.6034C13.3213 18.4864 11.6865 18.9562 10.0175 18.96Z" fill="#292D32"/>
<path id="Vector_3" d="M4.15999 16.5717C3.99607 16.5716 3.83872 16.5073 3.72166 16.3925C2.80729 15.4922 2.09675 14.4062 1.63804 13.2079C1.17932 12.0095 0.983114 10.7266 1.06266 9.44588C1.14221 8.16517 1.49566 6.91644 2.09914 5.78402C2.70262 4.65161 3.54208 3.66188 4.56083 2.88168C5.49375 2.16399 6.55995 1.63876 7.69752 1.33649C8.83509 1.03421 10.0214 0.960914 11.1875 1.12085C11.3518 1.14295 11.5006 1.22942 11.6012 1.36124C11.7018 1.49307 11.7458 1.65944 11.7237 1.82376C11.7016 1.98809 11.6152 2.1369 11.4833 2.23747C11.3515 2.33803 11.1852 2.38211 11.0208 2.36001C9.50978 2.15802 7.97277 2.40861 6.60414 3.08011C5.23551 3.75161 4.09672 4.81386 3.33178 6.13254C2.56683 7.45122 2.21007 8.96711 2.30661 10.4885C2.40316 12.01 2.94866 13.4686 3.87416 14.68C4.09642 14.9704 4.33867 15.245 4.59916 15.5017C4.71698 15.6181 4.78377 15.7765 4.78487 15.9421C4.78596 16.1078 4.72127 16.2671 4.60499 16.385C4.54718 16.4444 4.47797 16.4916 4.40151 16.5237C4.32505 16.5558 4.24291 16.5721 4.15999 16.5717Z" fill="#292D32"/>
<path id="Vector_4" d="M4.39172 17.0092C4.36384 17.0093 4.33599 17.0073 4.30839 17.0033L1.97506 16.6908C1.81449 16.6646 1.6705 16.5767 1.57367 16.446C1.47684 16.3153 1.43481 16.1519 1.45651 15.9907C1.47822 15.8294 1.56194 15.683 1.68989 15.5825C1.81784 15.482 1.97993 15.4354 2.14172 15.4525L3.85922 15.6817L4.08839 13.965C4.09831 13.8832 4.12448 13.8042 4.16538 13.7327C4.20628 13.6612 4.26108 13.5986 4.32654 13.5486C4.392 13.4986 4.46681 13.4622 4.54656 13.4415C4.62631 13.4209 4.70938 13.4164 4.79089 13.4283C4.95513 13.4505 5.10387 13.5369 5.20448 13.6686C5.30509 13.8003 5.34935 13.9665 5.32756 14.1308L5.01506 16.4642C4.99554 16.6154 4.92139 16.7543 4.80658 16.8547C4.69178 16.9551 4.54423 17.01 4.39172 17.0092Z" fill="#292D32"/>
<path id="Vector_5" d="M15.2976 6.5775C15.2697 6.5776 15.2418 6.57565 15.2142 6.57166C15.05 6.54949 14.9012 6.46308 14.8006 6.33138C14.7 6.19968 14.6558 6.03345 14.6776 5.86916L14.9901 3.53583C15 3.45408 15.0261 3.37514 15.0671 3.30366C15.108 3.23219 15.1628 3.16964 15.2283 3.1197C15.2937 3.06975 15.3686 3.03343 15.4483 3.01287C15.528 2.99231 15.6111 2.98794 15.6926 3L18.0259 3.3125C18.1865 3.33875 18.3304 3.42659 18.4273 3.55733C18.5241 3.68808 18.5661 3.85143 18.5444 4.01267C18.5227 4.17391 18.439 4.32034 18.3111 4.42083C18.1831 4.52132 18.021 4.56796 17.8592 4.55083L16.1417 4.32166L15.9167 6.035C15.8967 6.18508 15.8229 6.3228 15.7091 6.42258C15.5952 6.52236 15.449 6.57741 15.2976 6.5775Z" fill="#292D32"/>
</g>
</svg>
